<svg width="293" height="110" viewBox="0 0 293 110" fill="none" xmlns="http://www.w3.org/2000/svg">
<g filter="url(#filter0_d)">
<rect x="30" y="15" width="233" height="50" rx="3" fill="#2C87F2"/>
</g>
<path d="M113.944 46H111.224V36.352H106.848V46H104.128V34.344H113.944V46ZM119.492 37.576C120.121 37.576 120.695 37.6747 121.212 37.872C121.729 38.0693 122.172 38.352 122.54 38.72C122.913 39.088 123.201 39.536 123.404 40.064C123.612 40.5867 123.716 41.176 123.716 41.832C123.716 42.4933 123.612 43.0907 123.404 43.624C123.201 44.152 122.913 44.6027 122.54 44.976C122.172 45.344 121.729 45.6293 121.212 45.832C120.695 46.0293 120.121 46.128 119.492 46.128C118.857 46.128 118.279 46.0293 117.756 45.832C117.239 45.6293 116.791 45.344 116.412 44.976C116.039 44.6027 115.748 44.152 115.54 43.624C115.337 43.0907 115.236 42.4933 115.236 41.832C115.236 41.176 115.337 40.5867 115.54 40.064C115.748 39.536 116.039 39.088 116.412 38.72C116.791 38.352 117.239 38.0693 117.756 37.872C118.279 37.6747 118.857 37.576 119.492 37.576ZM119.492 44.288C120.063 44.288 120.481 44.088 120.748 43.688C121.02 43.2827 121.156 42.6693 121.156 41.848C121.156 41.0267 121.02 40.416 120.748 40.016C120.481 39.616 120.063 39.416 119.492 39.416C118.905 39.416 118.476 39.616 118.204 40.016C117.932 40.416 117.796 41.0267 117.796 41.848C117.796 42.6693 117.932 43.2827 118.204 43.688C118.476 44.088 118.905 44.288 119.492 44.288ZM130.169 44.296V39.536H128.641C128.593 40.1227 128.532 40.6587 128.457 41.144C128.388 41.6293 128.308 42.0667 128.217 42.456C128.126 42.8453 128.025 43.192 127.913 43.496C127.806 43.8 127.692 44.0667 127.569 44.296H130.169ZM134.097 44.224V48.016C134.097 48.2293 134.03 48.4 133.897 48.528C133.769 48.656 133.604 48.72 133.401 48.72H131.841V46H126.313V48.048C126.313 48.1333 126.3 48.216 126.273 48.296C126.246 48.376 126.204 48.448 126.145 48.512C126.092 48.576 126.022 48.6267 125.937 48.664C125.852 48.7013 125.75 48.72 125.633 48.72H124.057V44.296H124.257C124.438 44.296 124.614 44.2773 124.785 44.24C124.961 44.1973 125.126 44.104 125.281 43.96C125.441 43.816 125.588 43.6027 125.721 43.32C125.86 43.0373 125.985 42.6533 126.097 42.168C126.214 41.6773 126.316 41.0693 126.401 40.344C126.492 39.6133 126.564 38.7333 126.617 37.704H132.569V44.224H134.097ZM137.648 43.744C137.835 43.9467 138.037 44.0907 138.256 44.176C138.475 44.2613 138.704 44.304 138.944 44.304C139.173 44.304 139.384 44.2587 139.576 44.168C139.768 44.0773 139.933 43.9333 140.072 43.736C140.216 43.5333 140.328 43.272 140.408 42.952C140.488 42.632 140.528 42.2427 140.528 41.784C140.528 41.3467 140.496 40.9787 140.432 40.68C140.368 40.3813 140.277 40.1413 140.16 39.96C140.048 39.7733 139.912 39.64 139.752 39.56C139.592 39.48 139.413 39.44 139.216 39.44C138.853 39.44 138.555 39.5067 138.32 39.64C138.085 39.7733 137.861 39.968 137.648 40.224V43.744ZM137.496 38.728C137.821 38.3813 138.189 38.0987 138.6 37.88C139.016 37.656 139.509 37.544 140.08 37.544C140.512 37.544 140.912 37.64 141.28 37.832C141.648 38.024 141.965 38.3013 142.232 38.664C142.499 39.0267 142.707 39.472 142.856 40C143.011 40.5227 143.088 41.1173 143.088 41.784C143.088 42.408 143 42.984 142.824 43.512C142.653 44.04 142.411 44.4987 142.096 44.888C141.787 45.2773 141.413 45.5813 140.976 45.8C140.544 46.0187 140.064 46.128 139.536 46.128C139.104 46.128 138.741 46.0667 138.448 45.944C138.155 45.8213 137.888 45.656 137.648 45.448V48.632H135.168V37.704H136.704C137.013 37.704 137.216 37.8427 137.312 38.12L137.496 38.728ZM148.18 37.576C148.809 37.576 149.382 37.6747 149.9 37.872C150.417 38.0693 150.86 38.352 151.228 38.72C151.601 39.088 151.889 39.536 152.092 40.064C152.3 40.5867 152.404 41.176 152.404 41.832C152.404 42.4933 152.3 43.0907 152.092 43.624C151.889 44.152 151.601 44.6027 151.228 44.976C150.86 45.344 150.417 45.6293 149.9 45.832C149.382 46.0293 148.809 46.128 148.18 46.128C147.545 46.128 146.966 46.0293 146.444 45.832C145.926 45.6293 145.478 45.344 145.1 44.976C144.726 44.6027 144.436 44.152 144.228 43.624C144.025 43.0907 143.924 42.4933 143.924 41.832C143.924 41.176 144.025 40.5867 144.228 40.064C144.436 39.536 144.726 39.088 145.1 38.72C145.478 38.352 145.926 38.0693 146.444 37.872C146.966 37.6747 147.545 37.576 148.18 37.576ZM148.18 44.288C148.75 44.288 149.169 44.088 149.436 43.688C149.708 43.2827 149.844 42.6693 149.844 41.848C149.844 41.0267 149.708 40.416 149.436 40.016C149.169 39.616 148.75 39.416 148.18 39.416C147.593 39.416 147.164 39.616 146.892 40.016C146.62 40.416 146.484 41.0267 146.484 41.848C146.484 42.6693 146.62 43.2827 146.892 43.688C147.164 44.088 147.593 44.288 148.18 44.288ZM157.693 44.376C158.263 44.376 158.682 44.1867 158.949 43.808C159.221 43.424 159.357 42.8427 159.357 42.064C159.357 41.2853 159.221 40.7067 158.949 40.328C158.682 39.9493 158.263 39.76 157.693 39.76C157.101 39.76 156.669 39.9493 156.397 40.328C156.125 40.7013 155.989 41.2747 155.989 42.048C155.989 42.832 156.125 43.416 156.397 43.8C156.669 44.184 157.101 44.376 157.693 44.376ZM158.285 36.552C157.826 36.5787 157.431 36.6613 157.101 36.8C156.775 36.9333 156.506 37.1173 156.293 37.352C156.079 37.5867 155.917 37.864 155.805 38.184C155.698 38.504 155.634 38.8587 155.613 39.248C155.746 39.072 155.903 38.9093 156.085 38.76C156.266 38.6053 156.471 38.4747 156.701 38.368C156.93 38.256 157.178 38.168 157.445 38.104C157.717 38.04 158.01 38.008 158.325 38.008C158.874 38.008 159.37 38.1067 159.813 38.304C160.255 38.496 160.631 38.7707 160.941 39.128C161.255 39.48 161.495 39.904 161.661 40.4C161.831 40.896 161.917 41.448 161.917 42.056C161.917 42.6853 161.813 43.2507 161.605 43.752C161.402 44.2533 161.114 44.68 160.741 45.032C160.373 45.384 159.93 45.656 159.413 45.848C158.895 46.0347 158.322 46.128 157.693 46.128C157.058 46.128 156.479 46.0267 155.957 45.824C155.434 45.6213 154.983 45.2987 154.605 44.856C154.231 44.4133 153.941 43.8427 153.733 43.144C153.53 42.4453 153.429 41.5973 153.429 40.6C153.429 39.7787 153.503 39.008 153.653 38.288C153.807 37.5627 154.063 36.9253 154.421 36.376C154.783 35.8213 155.261 35.3733 155.853 35.032C156.45 34.6907 157.191 34.4907 158.077 34.432L161.013 34.232L161.149 35.48C161.175 35.7413 161.135 35.9653 161.029 36.152C160.922 36.3333 160.733 36.4293 160.461 36.44L158.285 36.552ZM170.704 37.704V46H168.224V42.496H165.664V46H163.184V37.704H165.664V40.72H168.224V37.704H170.704ZM177.547 40.856C177.547 40.6587 177.52 40.4667 177.467 40.28C177.419 40.0933 177.336 39.928 177.219 39.784C177.107 39.6347 176.958 39.5147 176.771 39.424C176.584 39.3333 176.358 39.288 176.091 39.288C175.622 39.288 175.254 39.424 174.987 39.696C174.72 39.9627 174.544 40.3493 174.459 40.856H177.547ZM174.427 42.296C174.507 42.9893 174.718 43.4933 175.059 43.808C175.4 44.1173 175.84 44.272 176.379 44.272C176.667 44.272 176.915 44.2373 177.123 44.168C177.331 44.0987 177.515 44.0213 177.675 43.936C177.84 43.8507 177.99 43.7733 178.123 43.704C178.262 43.6347 178.406 43.6 178.555 43.6C178.752 43.6 178.902 43.672 179.003 43.816L179.723 44.704C179.467 44.9973 179.19 45.2373 178.891 45.424C178.598 45.6053 178.294 45.7493 177.979 45.856C177.67 45.9573 177.358 46.0267 177.043 46.064C176.734 46.1067 176.438 46.128 176.155 46.128C175.574 46.128 175.027 46.0347 174.515 45.848C174.008 45.656 173.563 45.3733 173.179 45C172.8 44.6267 172.499 44.1627 172.275 43.608C172.056 43.0533 171.947 42.408 171.947 41.672C171.947 41.1173 172.04 40.592 172.227 40.096C172.419 39.6 172.691 39.1653 173.043 38.792C173.4 38.4187 173.83 38.1227 174.331 37.904C174.838 37.6853 175.408 37.576 176.043 37.576C176.592 37.576 177.094 37.6613 177.547 37.832C178.006 38.0027 178.398 38.2507 178.723 38.576C179.054 38.9013 179.31 39.3013 179.491 39.776C179.678 40.2453 179.771 40.7787 179.771 41.376C179.771 41.5627 179.763 41.7147 179.747 41.832C179.731 41.9493 179.702 42.0427 179.659 42.112C179.616 42.1813 179.558 42.2293 179.483 42.256C179.414 42.2827 179.323 42.296 179.211 42.296H174.427ZM186.172 40.856C186.172 40.6587 186.145 40.4667 186.092 40.28C186.044 40.0933 185.961 39.928 185.844 39.784C185.732 39.6347 185.583 39.5147 185.396 39.424C185.209 39.3333 184.983 39.288 184.716 39.288C184.247 39.288 183.879 39.424 183.612 39.696C183.345 39.9627 183.169 40.3493 183.084 40.856H186.172ZM183.052 42.296C183.132 42.9893 183.343 43.4933 183.684 43.808C184.025 44.1173 184.465 44.272 185.004 44.272C185.292 44.272 185.54 44.2373 185.748 44.168C185.956 44.0987 186.14 44.0213 186.3 43.936C186.465 43.8507 186.615 43.7733 186.748 43.704C186.887 43.6347 187.031 43.6 187.18 43.6C187.377 43.6 187.527 43.672 187.628 43.816L188.348 44.704C188.092 44.9973 187.815 45.2373 187.516 45.424C187.223 45.6053 186.919 45.7493 186.604 45.856C186.295 45.9573 185.983 46.0267 185.668 46.064C185.359 46.1067 185.063 46.128 184.78 46.128C184.199 46.128 183.652 46.0347 183.14 45.848C182.633 45.656 182.188 45.3733 181.804 45C181.425 44.6267 181.124 44.1627 180.9 43.608C180.681 43.0533 180.572 42.408 180.572 41.672C180.572 41.1173 180.665 40.592 180.852 40.096C181.044 39.6 181.316 39.1653 181.668 38.792C182.025 38.4187 182.455 38.1227 182.956 37.904C183.463 37.6853 184.033 37.576 184.668 37.576C185.217 37.576 185.719 37.6613 186.172 37.832C186.631 38.0027 187.023 38.2507 187.348 38.576C187.679 38.9013 187.935 39.3013 188.116 39.776C188.303 40.2453 188.396 40.7787 188.396 41.376C188.396 41.5627 188.388 41.7147 188.372 41.832C188.356 41.9493 188.327 42.0427 188.284 42.112C188.241 42.1813 188.183 42.2293 188.108 42.256C188.039 42.2827 187.948 42.296 187.836 42.296H183.052Z" fill="white"/>
<defs>
<filter id="filter0_d" x="0" y="0" width="293" height="110" filterUnits="userSpaceOnUse" color-interpolation-filters="sRGB">
<feFlood flood-opacity="0" result="BackgroundImageFix"/>
<feColorMatrix in="SourceAlpha" type="matrix" values="0 0 0 0 0 0 0 0 0 0 0 0 0 0 0 0 0 0 127 0"/>
<feOffset dy="15"/>
<feGaussianBlur stdDeviation="15"/>
<feColorMatrix type="matrix" values="0 0 0 0 0.172549 0 0 0 0 0.529412 0 0 0 0 0.94902 0 0 0 0.15 0"/>
<feBlend mode="normal" in2="BackgroundImageFix" result="effect1_dropShadow"/>
<feBlend mode="normal" in="SourceGraphic" in2="effect1_dropShadow" result="shape"/>
</filter>
</defs>
</svg>
