<svg width="15" height="15" viewBox="0 0 15 15" fill="none" xmlns="http://www.w3.org/2000/svg">
<path fill-rule="evenodd" clip-rule="evenodd" d="M14.6329 12.8602L11.3742 9.60157C11.345 9.57232 11.3354 9.53046 11.3578 9.49568C11.9749 8.53539 12.334 7.39331 12.334 6.16702C12.334 2.76105 9.57288 0 6.16696 0C2.76105 0 0 2.76105 0 6.16696C0 9.57281 2.76099 12.334 6.1669 12.334C7.39328 12.334 8.53532 11.9749 9.49563 11.3577C9.5304 11.3354 9.57218 11.3449 9.6014 11.3742L12.8601 14.6329C13.3497 15.1224 14.1433 15.1224 14.6329 14.6329C15.1224 14.1433 15.1224 13.3497 14.6329 12.8602ZM6.16696 10.196C3.9417 10.196 2.13783 8.39216 2.13783 6.16696C2.13783 3.9417 3.94176 2.13783 6.16696 2.13783C8.39211 2.13783 10.196 3.94176 10.196 6.16696C10.196 8.39216 8.39211 10.196 6.16696 10.196Z" fill="white"/>
</svg>
