<svg width="16" height="16" viewBox="0 0 16 16" fill="none" xmlns="http://www.w3.org/2000/svg">
<path fill-rule="evenodd" clip-rule="evenodd" d="M15.5198 14.3606C15.0422 14.9553 14.3886 15.7684 12.5652 15.9826C12.5335 15.9868 12.4148 16 12.2167 16C11.3029 16 8.02538 15.7016 4.20467 11.8644C0.780808 8.42358 -0.4035 5.976 0.117568 3.41715C0.493703 1.57816 1.50823 0.678838 1.71045 0.515389C2.05346 0.182925 2.50758 0 2.98931 0C3.46759 0 3.91481 0.184316 4.24746 0.518866L6.51463 2.79743C6.84659 3.13128 7.02948 3.57781 7.03017 4.05703C7.03086 4.55364 6.83693 5.02243 6.48426 5.37785L5.69955 6.16519L5.68092 6.18327L5.69334 6.20623C6.11157 6.95462 6.61401 7.76282 7.45393 8.6072C8.30144 9.45922 9.13653 9.97809 9.84049 10.3745L9.86326 10.3864L10.6659 9.58094C11.0179 9.22692 11.4837 9.03217 11.9786 9.03217C12.4562 9.03217 12.9034 9.21579 13.2354 9.54825L15.5039 11.8282C16.1589 12.4897 16.1665 13.5538 15.5198 14.3606ZM14.597 12.7331L12.3306 10.4559C12.1353 10.2598 11.7798 10.2758 11.5693 10.4879L10.6307 11.4318C10.452 11.6348 10.2042 11.7475 9.93228 11.7475C9.7066 11.7475 9.52509 11.6648 9.43606 11.6154C8.68379 11.1967 7.65407 10.6235 6.54775 9.51348C5.44074 8.39993 4.86998 7.36428 4.45106 6.60337C4.27921 6.30221 4.24539 5.84246 4.55596 5.49887L5.57877 4.47157C5.6892 4.36029 5.75131 4.21005 5.75131 4.05912C5.75131 3.9221 5.70093 3.79621 5.60914 3.7044L3.3406 1.42584C3.2495 1.33333 3.12458 1.28256 2.98931 1.28256C2.83678 1.28256 2.69047 1.34446 2.57936 1.45644L2.53726 1.49678C2.4848 1.53643 1.67318 2.19092 1.37227 3.67449C0.947135 5.75204 2.03068 7.86229 5.10947 10.9588C8.58302 14.4462 11.4278 14.7174 12.2167 14.7174C12.3464 14.7174 12.4155 14.7098 12.4162 14.7098C13.7212 14.5554 14.0932 14.0922 14.5239 13.5552C14.7151 13.3173 14.8193 12.9584 14.597 12.7331ZM14.0187 6.97757C13.9945 6.98035 13.9711 6.98174 13.9483 6.98174C13.6212 6.98174 13.3479 6.73622 13.3134 6.40932C13.225 5.59207 12.7336 4.62807 12.0628 3.9534C11.3975 3.28569 10.4506 2.79395 9.6431 2.70075C9.29388 2.65971 9.04198 2.34116 9.08201 1.98991C9.10064 1.82021 9.18622 1.66719 9.32149 1.55938C9.45538 1.45436 9.62447 1.40358 9.7908 1.42653C10.8812 1.55243 12.098 2.17354 12.9683 3.04712C13.8462 3.92975 14.4652 5.16502 14.586 6.27091C14.6226 6.62285 14.3679 6.94001 14.0187 6.97757ZM11.4927 4.60024C11.9876 5.09894 12.5273 5.96905 12.6149 6.78838C12.6336 6.95809 12.5845 7.12572 12.4783 7.25926C12.3706 7.3928 12.2174 7.47696 12.0483 7.49504C12.0248 7.49713 12.0021 7.49852 11.9786 7.49852C11.6508 7.49852 11.3782 7.2523 11.343 6.9261C11.2974 6.50391 10.9723 5.89393 10.5865 5.50722C10.2042 5.12328 9.60308 4.79708 9.18898 4.74909C9.0192 4.72961 8.86599 4.64476 8.75901 4.50913C8.6548 4.37489 8.60718 4.20796 8.62719 4.03895C8.64583 3.86785 8.73072 3.71553 8.86599 3.60842C9.00057 3.5013 9.16345 3.45401 9.33529 3.47487C10.1448 3.56877 11.002 4.10781 11.4927 4.60024Z" fill="#2C87F2"/>
</svg>
